<svg width="24" height="24" viewBox="0 0 24 24" fill="none" xmlns="http://www.w3.org/2000/svg">
<path fill-rule="evenodd" clip-rule="evenodd" d="M22 9.99997V14C22 14.8284 21.3284 15.5 20.5 15.5H19.6V15.8103C19.6 16.9508 18.7225 17.8993 17.5855 17.988L16.317 18.0869C12.7777 18.3629 9.22229 18.3629 5.683 18.0869L4.3354 17.9818C3.24022 17.8964 2.344 17.076 2.16238 15.9927C1.71923 13.3493 1.71923 10.6506 2.16238 8.00727C2.344 6.92389 3.24022 6.1035 4.3354 6.01811L5.683 5.91303C9.22229 5.63706 12.7777 5.63706 16.317 5.91303L17.5855 6.01194C18.7225 6.1006 19.6 7.04913 19.6 8.18964V8.49997H20.5C21.3284 8.49997 22 9.17154 22 9.99997ZM16.75 14.2079V9.78984C16.75 9.18585 16.2857 8.68331 15.6836 8.63558C12.426 8.37734 9.15297 8.37734 5.89532 8.63558L5.70659 8.65054C5.26764 8.68534 4.90255 9.00202 4.80608 9.43165C4.42761 11.1172 4.42775 12.8662 4.8062 14.5516C4.90238 14.9799 5.26569 15.2964 5.70349 15.3325L5.87776 15.3469C9.14667 15.6169 12.4323 15.6169 15.7012 15.3469C16.2939 15.298 16.75 14.8026 16.75 14.2079Z" fill="black"/>
</svg>
