<svg width="24" height="24" viewBox="0 0 24 24" fill="none" xmlns="http://www.w3.org/2000/svg">
<path fill-rule="evenodd" clip-rule="evenodd" d="M22 9.99997V14C22 14.8284 21.3284 15.5 20.5 15.5H19.6V15.8103C19.6 16.9508 18.7225 17.8993 17.5855 17.988L16.317 18.0869C12.7777 18.3629 9.22229 18.3629 5.683 18.0869L4.3354 17.9818C3.24022 17.8964 2.344 17.076 2.16238 15.9927C1.71923 13.3493 1.71923 10.6506 2.16238 8.00727C2.344 6.92389 3.24022 6.1035 4.3354 6.01811L5.683 5.91303C9.22229 5.63706 12.7777 5.63706 16.317 5.91303L17.5855 6.01194C18.7225 6.1006 19.6 7.04913 19.6 8.18964V8.49997H20.5C21.3284 8.49997 22 9.17154 22 9.99997ZM13.0671 8.4838C10.6763 8.39582 8.2817 8.44642 5.89534 8.63559L5.7066 8.65055C5.26765 8.68535 4.90256 9.00203 4.80609 9.43166C4.42762 11.1172 4.42776 12.8662 4.80622 14.5516C4.90239 14.9799 5.26571 15.2964 5.7035 15.3325L5.87778 15.3469C8.26998 15.5445 10.6711 15.5975 13.0681 15.5059C13.4709 15.4905 13.7895 15.1595 13.7895 14.7564V9.2333C13.7895 8.82982 13.4703 8.49864 13.0671 8.4838Z" fill="black"/>
</svg>
