<svg width="24" height="24" viewBox="0 0 24 24" fill="none" xmlns="http://www.w3.org/2000/svg">
<path fill-rule="evenodd" clip-rule="evenodd" d="M12 3.74976L19.2736 3.95541C20.5588 3.99175 21.6219 4.9674 21.768 6.2448C22.0915 9.07241 22.0915 11.9277 21.768 14.7553C21.6219 16.0327 20.5588 17.0084 19.2736 17.0447L13.25 17.215V19.2501H17C17.4142 19.2501 17.75 19.5858 17.75 20.0001C17.75 20.4143 17.4142 20.7501 17 20.7501H7C6.58579 20.7501 6.25 20.4143 6.25 20.0001C6.25 19.5858 6.58579 19.2501 7 19.2501H10.75V17.215L4.72636 17.0447C3.44114 17.0084 2.37812 16.0327 2.23196 14.7553C1.90844 11.9277 1.90844 9.07241 2.23196 6.2448C2.37812 4.9674 3.44114 3.99175 4.72636 3.95541L12 3.74976ZM5 13.7501C4.58579 13.7501 4.25 14.0858 4.25 14.5001C4.25 14.9143 4.58579 15.2501 5 15.2501H19C19.4142 15.2501 19.75 14.9143 19.75 14.5001C19.75 14.0858 19.4142 13.7501 19 13.7501H5Z" fill="black"/>
</svg>
