<svg width="24" height="24" viewBox="0 0 24 24" fill="none" xmlns="http://www.w3.org/2000/svg">
<path fill-rule="evenodd" clip-rule="evenodd" d="M5.3986 14.9446C7.85538 17.4014 11.7348 17.5685 14.3851 15.4458L19.5407 20.6014C19.8336 20.8943 20.3085 20.8943 20.6014 20.6014C20.8943 20.3085 20.8943 19.8337 20.6014 19.5408L15.4457 14.3851C17.5684 11.7349 17.4013 7.85544 14.9445 5.39866C12.3085 2.76262 8.03464 2.76262 5.3986 5.39866C2.76256 8.0347 2.76256 12.3086 5.3986 14.9446ZM7.70001 9.45007C7.2858 9.45007 6.95001 9.78586 6.95001 10.2001C6.95001 10.6143 7.2858 10.9501 7.70001 10.9501H12.7C13.1142 10.9501 13.45 10.6143 13.45 10.2001C13.45 9.78586 13.1142 9.45007 12.7 9.45007H7.70001Z" fill="black"/>
</svg>
