<svg width="24" height="24" viewBox="0 0 24 24" fill="none" xmlns="http://www.w3.org/2000/svg">
<path fill-rule="evenodd" clip-rule="evenodd" d="M14.3851 15.4458C11.7348 17.5685 7.85538 17.4014 5.3986 14.9446C2.76256 12.3086 2.76256 8.0347 5.3986 5.39866C8.03464 2.76262 12.3085 2.76262 14.9445 5.39866C17.4013 7.85544 17.5684 11.7349 15.4457 14.3851L20.6014 19.5408C20.8943 19.8337 20.8943 20.3085 20.6014 20.6014C20.3085 20.8943 19.8336 20.8943 19.5407 20.6014L14.3851 15.4458ZM6.95001 10.2001C6.95001 9.78586 7.2858 9.45007 7.70001 9.45007H9.45001V7.70007C9.45001 7.28586 9.7858 6.95007 10.2 6.95007C10.6142 6.95007 10.95 7.28586 10.95 7.70007V9.45007H12.7C13.1142 9.45007 13.45 9.78586 13.45 10.2001C13.45 10.6143 13.1142 10.9501 12.7 10.9501H10.95V12.7001C10.95 13.1143 10.6142 13.4501 10.2 13.4501C9.7858 13.4501 9.45001 13.1143 9.45001 12.7001V10.9501H7.70001C7.2858 10.9501 6.95001 10.6143 6.95001 10.2001Z" fill="black"/>
</svg>
