<svg width="24" height="24" viewBox="0 0 24 24" fill="none" xmlns="http://www.w3.org/2000/svg">
<path d="M9.87735 3.1528C9.95823 3.04834 9.87435 2.89791 9.74298 2.9118L6.24047 3.28212C6.15789 3.29086 6.09811 3.36502 6.10712 3.44757L6.50442 7.08766C6.51906 7.22179 6.68954 7.2699 6.77214 7.16322L9.87735 3.1528Z" fill="black"/>
<path d="M17.2239 7.16322C17.3065 7.26991 17.4769 7.2218 17.4916 7.08767L17.8889 3.44756C17.8979 3.36501 17.8382 3.29084 17.7556 3.28211L14.253 2.91179C14.1216 2.8979 14.0378 3.04833 14.1186 3.15279L17.2239 7.16322Z" fill="black"/>
<path d="M7.83577 8.63466C7.7111 8.63466 7.64084 8.49141 7.71716 8.39283L11.8794 3.01724C11.9395 2.93968 12.0566 2.93968 12.1166 3.01724L16.2788 8.39283C16.3551 8.49141 16.2848 8.63466 16.1601 8.63466H7.83577Z" fill="black"/>
<path d="M8.99339 18.2609C9.06109 18.4186 8.8536 18.548 8.74175 18.4177L1.84148 10.3825C1.75795 10.2852 1.82706 10.1348 1.95528 10.1348H5.4075C5.46748 10.1348 5.5217 10.1705 5.54535 10.2256L8.99339 18.2609Z" fill="black"/>
<path d="M18.5885 10.1348C18.5285 10.1348 18.4743 10.1705 18.4507 10.2256L15.0025 18.261C14.9348 18.4188 15.1423 18.5481 15.2542 18.4179L22.1546 10.3825C22.2381 10.2852 22.169 10.1348 22.0408 10.1348H18.5885Z" fill="black"/>
<path d="M18.8498 8.46849C18.8401 8.55725 18.9097 8.63477 18.9989 8.63477L21.7785 8.63476C21.9019 8.63476 21.9725 8.4941 21.8988 8.39515L19.4745 5.14069C19.3931 5.0314 19.2199 5.07854 19.2051 5.21403L18.8498 8.46849Z" fill="black"/>
<path d="M4.79099 5.21417C4.7762 5.07869 4.603 5.03154 4.52158 5.14084L2.09734 8.39515C2.02363 8.4941 2.09425 8.63476 2.21763 8.63476H4.99702C5.08631 8.63476 5.15582 8.55725 5.14614 8.46849L4.79099 5.21417Z" fill="black"/>
<path d="M7.22842 10.3439C7.18594 10.2449 7.25855 10.1348 7.36626 10.1348H16.6297C16.7374 10.1348 16.81 10.2449 16.7675 10.3439L12.1359 21.1376C12.0839 21.2588 11.9121 21.2588 11.8602 21.1376L7.22842 10.3439Z" fill="black"/>
</svg>
