<svg width="24" height="24" viewBox="0 0 24 24" fill="none" xmlns="http://www.w3.org/2000/svg">
<path d="M11.703 5.61576C11.7322 4.71134 11.9813 3.379 12.8483 2.50372C13.6531 1.69124 14.6328 1.29525 15.243 1.11423C15.4786 1.04434 15.7046 1.22198 15.693 1.46743C15.6522 2.33323 15.4245 3.62462 14.8371 4.31644C14.2834 4.9686 13.3927 5.83342 12.088 5.97892C11.8744 6.00274 11.6961 5.83052 11.703 5.61576Z" fill="black"/>
<path d="M13.9371 22.1697C14.5636 22.4097 15.197 22.6523 15.7703 22.6523C16.9967 22.6523 20.5678 19.8228 20.6964 16.884C20.7031 16.733 20.6129 16.5982 20.4811 16.5245C19.5727 16.0162 18.0893 14.7505 18.0377 12.9091C17.9775 10.7633 19.0549 9.05891 19.8704 8.35388C20.0539 8.19521 20.1169 7.91543 19.9531 7.73651C19.2112 6.9263 17.7186 5.81185 16.3569 5.8392C15.3661 5.85911 14.4735 6.22816 13.7075 6.54484C13.1198 6.7878 12.6067 6.99994 12.181 6.99994C11.7778 6.99994 11.2938 6.78916 10.7383 6.54725C9.99021 6.22146 9.11242 5.8392 8.12774 5.8392C6.30381 5.8392 2.70002 7.35168 2.70001 13.1905C2.70001 16.2858 5.89537 22.7344 8.59172 22.6523C9.17396 22.6523 9.79619 22.4112 10.4136 22.172C11.0217 21.9364 11.625 21.7026 12.181 21.7026C12.7178 21.7026 13.3241 21.9349 13.9371 22.1697Z" fill="black"/>
</svg>
