<svg width="24" height="24" viewBox="0 0 24 24" fill="none" xmlns="http://www.w3.org/2000/svg">
<path d="M6.66076 3.25278C6.56243 3.19015 6.43672 3.19015 6.3384 3.2528L1.39714 6.40086C1.21206 6.51876 1.21206 6.78897 1.39713 6.90688L6.33839 10.055C6.43672 10.1177 6.56244 10.1177 6.66077 10.055L11.6028 6.90681C11.7879 6.7889 11.7879 6.51867 11.6028 6.40076L6.66076 3.25278Z" fill="black"/>
<path d="M17.6612 3.25281C17.5629 3.19016 17.4371 3.19016 17.3388 3.25281L12.3971 6.4012C12.2121 6.51911 12.2121 6.78931 12.3971 6.90722L17.3388 10.0556C17.4371 10.1183 17.5629 10.1183 17.6612 10.0556L22.6029 6.90722C22.7879 6.78931 22.7879 6.51911 22.6029 6.4012L17.6612 3.25281Z" fill="black"/>
<path d="M1.39713 13.9151C1.21206 13.7972 1.21206 13.527 1.39714 13.4091L6.3384 10.261C6.43672 10.1984 6.56243 10.1984 6.66076 10.261L11.6028 13.409C11.7879 13.5269 11.7879 13.7971 11.6028 13.915L6.66077 17.0632C6.56244 17.1259 6.43672 17.1259 6.33839 17.0632L1.39713 13.9151Z" fill="black"/>
<path d="M17.6612 10.261C17.5629 10.1984 17.4371 10.1984 17.3388 10.261L12.3971 13.4094C12.2121 13.5273 12.2121 13.7975 12.3971 13.9154L17.3388 17.0637C17.4371 17.1264 17.5629 17.1264 17.6612 17.0637L22.6029 13.9154C22.7879 13.7975 22.7879 13.5273 22.6029 13.4094L17.6612 10.261Z" fill="black"/>
<path d="M6.89721 18.5944C6.71212 18.4765 6.71212 18.2063 6.89722 18.0883L11.8392 14.9403C11.9376 14.8776 12.0633 14.8777 12.1616 14.9403L17.1029 18.0883C17.2879 18.2062 17.2879 18.4764 17.1029 18.5943L12.1616 21.7425C12.0633 21.8052 11.9376 21.8052 11.8392 21.7425L6.89721 18.5944Z" fill="black"/>
</svg>
