<svg width="24" height="24" viewBox="0 0 24 24" fill="none" xmlns="http://www.w3.org/2000/svg">
<path d="M20.1937 18.4239C19.775 18.4745 18.6178 16.6467 18.4593 16.3929C18.454 16.3844 18.4412 16.3888 18.4411 16.3989C18.4292 17.6144 17.802 19.1858 16.4608 20.3282C16.4548 20.3334 16.4563 20.343 16.4638 20.3454C17.1295 20.5525 18.5864 21.0939 18.2362 21.6845C17.9506 22.167 13.3337 21.9926 12.0006 21.842C10.6675 21.992 6.05062 22.1664 5.76499 21.6845C5.41227 21.0895 6.891 20.5445 7.55087 20.3408C7.55123 20.3407 7.55147 20.3404 7.55154 20.34L7.55162 20.3395C7.55168 20.3391 7.55155 20.3388 7.55128 20.3386C6.19018 19.1861 5.56002 17.5909 5.55875 16.3676C5.55875 16.3674 5.55871 16.3673 5.55865 16.3672L5.5586 16.367C5.55826 16.3663 5.55767 16.3656 5.55725 16.3663C5.50792 16.4461 4.24802 18.4778 3.80624 18.4239C3.59687 18.3982 3.32124 17.2657 4.17124 14.5295C4.57187 13.2395 5.03062 12.167 5.73937 10.3976C5.61999 5.83136 7.50687 2.00073 11.9994 2.00073C16.4425 2.00136 18.3725 5.75573 18.26 10.3976C18.9675 12.1639 19.4281 13.2432 19.8281 14.5295C20.6787 17.2664 20.4037 18.3989 20.1937 18.4239Z" fill="black"/>
</svg>
