<svg width="24" height="24" viewBox="0 0 24 24" fill="none" xmlns="http://www.w3.org/2000/svg">
<path fill-rule="evenodd" clip-rule="evenodd" d="M10.6637 11.8387L10.851 12.0001L10.6637 12.1614C8.68826 13.8634 7.04583 15.9173 5.81982 18.2186C5.33871 19.1217 5.93601 20.2227 6.95536 20.3119L8.1289 20.4145C10.7047 20.6397 13.2953 20.6397 15.8711 20.4145L17.0447 20.3119C18.064 20.2227 18.6613 19.1217 18.1802 18.2186C16.9542 15.9173 15.3118 13.8634 13.3363 12.1614L13.149 12.0001L13.3363 11.8387C15.3118 10.1367 16.9542 8.08285 18.1802 5.78153C18.6613 4.87846 18.064 3.77738 17.0447 3.68826L15.8711 3.58565C13.2953 3.36045 10.7047 3.36045 8.1289 3.58565L6.95536 3.68826C5.93601 3.77738 5.33871 4.87846 5.81982 5.78154C7.04583 8.08285 8.68826 10.1367 10.6637 11.8387ZM12 9.75006C11.801 9.75006 11.6103 9.67104 11.4696 9.53039L9.46963 7.53039C9.25513 7.31589 9.19097 6.9933 9.30705 6.71304C9.42314 6.43279 9.69661 6.25006 9.99996 6.25006H14C14.3033 6.25006 14.5768 6.43279 14.6929 6.71304C14.809 6.9933 14.7448 7.31589 14.5303 7.53039L12.5303 9.53039C12.3896 9.67104 12.1989 9.75006 12 9.75006ZM12 14.2501C11.801 14.2501 11.6103 14.3291 11.4696 14.4697L9.46963 16.4697C9.25513 16.6842 9.19097 17.0068 9.30705 17.2871C9.42314 17.5673 9.69661 17.7501 9.99996 17.7501H14C14.3033 17.7501 14.5768 17.5673 14.6929 17.2871C14.809 17.0068 14.7448 16.6842 14.5303 16.4697L12.5303 14.4697C12.3896 14.3291 12.1989 14.2501 12 14.2501Z" fill="black"/>
</svg>
