<svg width="24" height="24" viewBox="0 0 24 24" fill="none" xmlns="http://www.w3.org/2000/svg">
<path fill-rule="evenodd" clip-rule="evenodd" d="M8.38002 7.19396C9.34177 5.69967 11.0205 4.70825 12.9319 4.70825C15.8124 4.70825 18.1671 6.9597 18.3321 9.79883C18.3955 9.79616 18.4592 9.79481 18.5233 9.79481C20.9961 9.79481 23.0008 11.7995 23.0008 14.2724C23.0008 16.7453 20.9961 18.7499 18.5233 18.7499H6.87461C3.62971 18.7499 0.999207 16.1194 0.999207 12.8745C0.999207 9.62964 3.62971 6.99913 6.87461 6.99913C7.39427 6.99913 7.89899 7.06678 8.38002 7.19396ZM12 15.7499C12.18 15.7499 12.3453 15.6865 12.4745 15.5807L14.9685 13.5856C15.2919 13.3268 15.3444 12.8549 15.0856 12.5314C14.8269 12.208 14.3549 12.1555 14.0314 12.4143L12.75 13.4394V9.99994C12.75 9.58573 12.4142 9.24994 12 9.24994C11.5858 9.24994 11.25 9.58573 11.25 9.99994V13.4395L9.96849 12.4143C9.64504 12.1555 9.17307 12.208 8.91431 12.5314C8.65556 12.8549 8.708 13.3268 9.03145 13.5856L11.5288 15.5835C11.656 15.6863 11.8176 15.7485 11.9937 15.7499L12 15.7499Z" fill="black"/>
</svg>
