<svg width="24" height="24" viewBox="0 0 24 24" fill="none" xmlns="http://www.w3.org/2000/svg">
<path d="M19.8069 5.68665C20.1051 5.93228 20.3533 6.23689 20.5337 6.58369C20.5907 6.69342 20.5479 6.82628 20.4428 6.89139L14.1768 10.7703C12.833 11.6022 11.1384 11.6197 9.77772 10.8156L3.46989 7.08828C3.36798 7.02806 3.3212 6.9041 3.36713 6.795C3.54974 6.36122 3.83432 5.98296 4.19034 5.68892L4.19 5.68593L4.20227 5.67912C4.46571 5.46389 4.76774 5.29453 5.09615 5.18252L9.20602 2.89926C10.9427 1.93446 13.0543 1.93446 14.7909 2.89925L18.896 5.17984C19.2301 5.29273 19.5371 5.46493 19.8042 5.68442L19.8069 5.68665Z" fill="black"/>
<path d="M2.98885 8.95409C3.00703 8.77384 3.20603 8.67467 3.362 8.76683L9.01462 12.107C10.8556 13.1949 13.1482 13.1712 14.9664 12.0457L20.6109 8.55146C20.7662 8.45536 20.9685 8.55271 20.9882 8.73423C21.2682 11.3217 21.2145 13.9362 20.8269 16.5133C20.6284 17.8334 19.551 18.8454 18.2211 18.961L16.7108 19.0923C13.5762 19.3648 10.4238 19.3648 7.28918 19.0923L5.77895 18.961C4.44901 18.8454 3.3716 17.8334 3.17308 16.5133C2.79653 14.0092 2.73512 11.4697 2.98885 8.95409Z" fill="black"/>
</svg>
