<svg width="24" height="24" viewBox="0 0 24 24" fill="none" xmlns="http://www.w3.org/2000/svg">
<path d="M14.5661 19.1519C10.3266 17.3529 6.9166 14.0344 5.0002 9.86053L4.99942 9.85884L4.48133 8.71922C3.7726 7.16027 4.29598 5.31742 5.71832 4.36372L7.05116 3.47002C7.48153 3.18145 8.06103 3.26942 8.38638 3.6727L10.8162 6.68464C11.1731 7.12702 11.09 7.77754 10.6333 8.11596L9.3761 9.04768C10.5554 11.4385 12.4965 13.3795 14.8873 14.5589L15.819 13.3016C16.1575 12.845 16.808 12.7618 17.2503 13.1187L20.2622 15.5485C20.6656 15.8739 20.7535 16.4536 20.4647 16.884L19.5766 18.2077C18.6283 19.6212 16.8006 20.1475 15.2457 19.4547L14.5661 19.1519Z" fill="black"/>
<path d="M13.75 9.00003C13.75 9.19894 13.829 9.38971 13.9697 9.53036C14.1103 9.67101 14.3011 9.75003 14.5 9.75003H18.3284C18.7426 9.75003 19.0784 9.41424 19.0784 9.00003C19.0784 8.58582 18.7426 8.25003 18.3284 8.25003H16.3107L19.4697 5.09102C19.7626 4.79813 19.7626 4.32325 19.4697 4.03036C19.1768 3.73747 18.7019 3.73747 18.409 4.03036L15.25 7.18937V5.1716C15.25 4.75739 14.9142 4.4216 14.5 4.4216C14.0858 4.4216 13.75 4.75739 13.75 5.1716V9.00003Z" fill="black"/>
</svg>
