<svg width="24" height="24" viewBox="0 0 24 24" fill="none" xmlns="http://www.w3.org/2000/svg">
<path d="M9.37536 20.3998C9.5237 20.5322 9.74858 20.3879 9.6929 20.197L7.17342 11.5588C7.12651 11.3979 6.9843 11.2835 6.81719 11.2712C6.40945 11.2413 6.0019 11.2078 5.59459 11.1707L2.22417 10.8643C2.06681 10.85 1.95605 11.0151 2.03055 11.1544C3.85362 14.5642 6.47882 17.8132 9.37536 20.3998Z" fill="black"/>
<path d="M11.8471 22.2258C11.8675 22.2955 11.9274 22.348 12 22.348C12.0726 22.348 12.1325 22.2955 12.1529 22.2258L15.2368 11.6525C15.2752 11.5207 15.1725 11.3903 15.0354 11.3962C13.0127 11.483 10.9873 11.483 8.96465 11.3962C8.82751 11.3903 8.72482 11.5207 8.76325 11.6525L11.8471 22.2258Z" fill="black"/>
<path d="M14.3071 20.197C14.2514 20.3879 14.4763 20.5322 14.6246 20.3998C17.5212 17.8132 20.1464 14.5642 21.9694 11.1544C22.0439 11.0151 21.9332 10.85 21.7758 10.8643L18.4054 11.1707C17.9981 11.2078 17.5906 11.2413 17.1828 11.2712C17.0157 11.2835 16.8735 11.3979 16.8266 11.5588L14.3071 20.197Z" fill="black"/>
<path d="M21.801 9.35587C21.9534 9.34201 22.0344 9.16912 21.9475 9.04314L18.7097 4.34835C18.4297 3.94237 17.9681 3.69995 17.4749 3.69995H14.9853C14.8431 3.69995 14.7464 3.84403 14.8001 3.9756L17.0569 9.49897C17.1225 9.65952 17.2841 9.75962 17.4569 9.74595C17.7279 9.72453 17.9988 9.70152 18.2696 9.6769L21.801 9.35587Z" fill="black"/>
<path d="M13.1651 3.94611C13.103 3.79705 12.9573 3.69995 12.7958 3.69995H11.2042C11.0427 3.69995 10.8971 3.79705 10.8349 3.94611L8.47739 9.60423C8.42422 9.73184 8.51347 9.87361 8.65155 9.88029C10.8825 9.9883 13.1175 9.9883 15.3485 9.88029C15.4865 9.87361 15.5758 9.73184 15.5226 9.60423L13.1651 3.94611Z" fill="black"/>
<path d="M9.19988 3.9756C9.25364 3.84403 9.15687 3.69995 9.01474 3.69995H6.5251C6.03193 3.69995 5.57026 3.94237 5.29028 4.34835L2.05249 9.04314C1.96561 9.16912 2.04663 9.34201 2.19903 9.35587L5.73039 9.6769C6.00118 9.70152 6.27207 9.72454 6.54306 9.74596C6.71595 9.75962 6.87754 9.65952 6.94314 9.49897L9.19988 3.9756Z" fill="black"/>
</svg>
