<svg width="24" height="24" viewBox="0 0 24 24" fill="none" xmlns="http://www.w3.org/2000/svg">
<path d="M21.0303 4.83038C21.3232 4.53749 21.3232 4.06261 21.0303 3.76972C20.7374 3.47683 20.2626 3.47683 19.9697 3.76972L3.96967 19.7697C3.67678 20.0626 3.67678 20.5375 3.96967 20.8304C4.26256 21.1233 4.73744 21.1233 5.03033 20.8304L7.11065 18.7501H18.5233C20.9961 18.7501 23.0008 16.7454 23.0008 14.2725C23.0008 11.7996 20.9961 9.79493 18.5233 9.79493C18.4592 9.79493 18.3955 9.79628 18.3321 9.79895C18.2944 9.15027 18.1424 8.53227 17.8959 7.96479L21.0303 4.83038Z" fill="black"/>
<path d="M12.9319 4.70837C14.0388 4.70837 15.068 5.04083 15.9252 5.61134C16.0521 5.69579 16.0649 5.87451 15.9571 5.9823L4.09641 17.843C4.01666 17.9227 3.89307 17.9397 3.79705 17.8805C2.1183 16.8462 0.999207 14.9911 0.999207 12.8747C0.999207 9.62976 3.62971 6.99925 6.87461 6.99925C7.39427 6.99925 7.89899 7.0669 8.38002 7.19408C9.34177 5.69979 11.0205 4.70837 12.9319 4.70837Z" fill="black"/>
</svg>
