<svg width="24" height="24" viewBox="0 0 24 24" fill="none" xmlns="http://www.w3.org/2000/svg">
<path fill-rule="evenodd" clip-rule="evenodd" d="M8.38002 7.19396C9.34177 5.69967 11.0205 4.70825 12.9319 4.70825C15.8124 4.70825 18.1671 6.9597 18.3321 9.79883C18.3955 9.79616 18.4592 9.79481 18.5233 9.79481C20.9961 9.79481 23.0008 11.7995 23.0008 14.2724C23.0008 16.7453 20.9961 18.7499 18.5233 18.7499H6.87461C3.62971 18.7499 0.999207 16.1194 0.999207 12.8745C0.999207 9.62964 3.62971 6.99913 6.87461 6.99913C7.39427 6.99913 7.89899 7.06678 8.38002 7.19396ZM15.0303 11.5303C15.3232 11.2374 15.3232 10.7625 15.0303 10.4696C14.7374 10.1767 14.2626 10.1767 13.9697 10.4696L11 13.4393L9.53033 11.9696C9.23744 11.6767 8.76256 11.6767 8.46967 11.9696C8.17678 12.2625 8.17678 12.7374 8.46967 13.0303L10.4697 15.0303C10.7626 15.3232 11.2374 15.3232 11.5303 15.0303L15.0303 11.5303Z" fill="black"/>
</svg>
