<svg width="24" height="24" viewBox="0 0 24 24" fill="none" xmlns="http://www.w3.org/2000/svg">
<path fill-rule="evenodd" clip-rule="evenodd" d="M12.2303 2.50272C6.98512 2.37557 2.63 6.52454 2.50285 11.7697C2.3757 17.0149 6.52467 21.37 11.7698 21.4971C12.1075 21.5053 12.4129 21.4106 12.668 21.2176C12.9156 21.0304 13.0871 20.7728 13.207 20.4972C13.4422 19.9569 13.5214 19.2483 13.5254 18.5176C13.5398 15.8758 15.8573 13.5816 18.4726 13.6807C19.1921 13.7079 19.8862 13.6694 20.4211 13.493C20.6917 13.4037 20.9551 13.2685 21.1568 13.0575C21.3687 12.8359 21.4894 12.554 21.4973 12.2302C21.6244 6.98499 17.4754 2.62987 12.2303 2.50272ZM8.8901 15.4026C8.3419 15.4697 7.95184 15.9684 8.01888 16.5166C8.08593 17.0648 8.58468 17.4549 9.13288 17.3879C9.68108 17.3208 10.0711 16.8221 10.0041 16.2739C9.93705 15.7257 9.4383 15.3356 8.8901 15.4026ZM5.54812 12.789C5.48108 12.2408 5.87113 11.7421 6.41933 11.675C6.96753 11.608 7.46629 11.998 7.53333 12.5462C7.60037 13.0944 7.21032 13.5932 6.66212 13.6602C6.11391 13.7273 5.61516 13.3372 5.54812 12.789ZM7.91897 7.46181C7.37077 7.52886 6.98071 8.02761 7.04775 8.57581C7.1148 9.12401 7.61355 9.51407 8.16175 9.44702C8.70995 9.37998 9.1 8.88123 9.03296 8.33303C8.96592 7.78483 8.46717 7.39477 7.91897 7.46181ZM15.6973 9.28104C15.6303 8.73284 16.0203 8.23409 16.5685 8.16705C17.1167 8.1 17.6155 8.49006 17.6825 9.03826C17.7496 9.58646 17.3595 10.0852 16.8113 10.1523C16.2631 10.2193 15.7644 9.82924 15.6973 9.28104ZM11.9926 10.8786C11.4444 10.9456 11.0544 11.4444 11.1214 11.9926C11.1885 12.5408 11.6872 12.9308 12.2354 12.8638C12.7836 12.7967 13.1737 12.298 13.1066 11.7498C13.0396 11.2016 12.5408 10.8115 11.9926 10.8786ZM11.3931 7.03693C11.326 6.48873 11.7161 5.98998 12.2643 5.92294C12.8125 5.85589 13.3113 6.24595 13.3783 6.79415C13.4453 7.34235 13.0553 7.8411 12.5071 7.90814C11.9589 7.97519 11.4601 7.58513 11.3931 7.03693Z" fill="black"/>
</svg>
