<svg width="39" height="26" viewBox="0 0 39 26" fill="none" xmlns="http://www.w3.org/2000/svg">
<path d="M35.3566 0.000183105H2.86231C1.28145 0.000183105 0 1.28164 0 2.8625V22.1779C0 23.7587 1.28145 25.0402 2.86231 25.0402H35.3566C36.9374 25.0402 38.2189 23.7588 38.2189 22.1779V2.8625C38.2189 1.28164 36.9375 0.000183105 35.3566 0.000183105Z" fill="#41479B"/>
<path d="M38.1793 2.38921C37.9537 1.0337 36.7762 0 35.3566 0H34.6119L22.4042 7.99813V7.46054e-05H15.8147V7.99821L3.60706 7.46054e-05H2.86231C1.44276 7.46054e-05 0.265218 1.0337 0.0396372 2.38928L10.4736 9.2254H0V15.8149H10.4736L0.0396372 22.6508C0.265218 24.0063 1.44276 25.0401 2.86231 25.0401H3.60706L15.8147 17.0419V25.0401H22.4042V17.0419L34.6119 25.0401H35.3566C36.7762 25.0401 37.9537 24.0064 38.1793 22.6508L27.7454 15.8147H38.2189V9.22525H27.7454L38.1793 2.38921Z" fill="white"/>
<path d="M21.0863 0.000183105H17.1326V10.5433H0V14.497H17.1326V25.0402H21.0863V14.497H38.2189V10.5433H21.0863V0.000183105Z" fill="#FF4B55"/>
<path d="M1.85078 24.8555L15.7785 15.8148H13.3579L0.688614 24.0387C0.99862 24.4006 1.39701 24.6841 1.85078 24.8555Z" fill="#FF4B55"/>
<path d="M25.8568 15.8148H23.4362L36.9259 24.5712C37.3034 24.3233 37.6184 23.9884 37.8431 23.5952L25.8568 15.8148Z" fill="#FF4B55"/>
<path d="M0.302319 1.58249L12.0763 9.2253H14.4969L1.15523 0.564835C0.797 0.831471 0.503864 1.18007 0.302319 1.58249Z" fill="#FF4B55"/>
<path d="M24.8248 9.22532L37.5173 0.986227C37.2039 0.625611 36.8023 0.343746 36.3454 0.175568L22.4042 9.22532H24.8248Z" fill="#FF4B55"/>
</svg>