<svg width="24" height="24" viewBox="0 0 24 24" fill="none" xmlns="http://www.w3.org/2000/svg">
<path d="M18.955 3.10577C19.2478 2.81288 19.2478 2.338 18.955 2.04511C18.6621 1.75222 18.1872 1.75222 17.8943 2.04511L17.1872 2.75222C16.6917 3.24765 16.7171 4.01752 17.1493 4.49983C20.0518 7.73859 19.9465 12.7208 16.8336 15.8337C15.2236 17.4437 13.1135 18.2492 11.0032 18.2501L11 18.2501L10.997 18.2501C9.02922 18.2494 7.06174 17.5492 5.49977 16.1494C5.01746 15.7171 4.24759 15.6918 3.75216 16.1872L3.04505 16.8944C2.75216 17.1872 2.75216 17.6621 3.04505 17.955C3.33794 18.2479 3.81282 18.2479 4.10571 17.955L4.65616 17.4046C6.27594 18.7952 8.24373 19.5674 10.25 19.7213V21.2501H8.5C8.08579 21.2501 7.75 21.5858 7.75 22.0001C7.75 22.4143 8.08579 22.7501 8.5 22.7501H13.5C13.9142 22.7501 14.25 22.4143 14.25 22.0001C14.25 21.5858 13.9142 21.2501 13.5 21.2501H11.75V19.7214C13.9897 19.5496 16.1813 18.6073 17.8943 16.8944C21.5235 13.2652 21.6935 7.4873 18.4045 3.65622L18.955 3.10577Z" fill="black"/>
<path fill-rule="evenodd" clip-rule="evenodd" d="M4.5 10.0001C4.5 6.41021 7.41015 3.50006 11 3.50006C14.5899 3.50006 17.5 6.41021 17.5 10.0001C17.5 13.5899 14.5899 16.5001 11 16.5001C7.41015 16.5001 4.5 13.5899 4.5 10.0001ZM13 6.25006C11.4812 6.25006 10.25 7.48128 10.25 9.00006C10.25 10.5188 11.4812 11.7501 13 11.7501C14.5188 11.7501 15.75 10.5188 15.75 9.00006C15.75 7.48128 14.5188 6.25006 13 6.25006ZM6.25 12.5001C6.25 11.8097 6.80964 11.2501 7.5 11.2501C8.19036 11.2501 8.75 11.8097 8.75 12.5001C8.75 13.1904 8.19036 13.7501 7.5 13.7501C6.80964 13.7501 6.25 13.1904 6.25 12.5001Z" fill="black"/>
</svg>
