<svg width="24" height="24" viewBox="0 0 24 24" fill="none" xmlns="http://www.w3.org/2000/svg">
<path d="M15.25 10.1067C12.2361 9.88368 9.20974 9.887 6.19627 10.1167C5.96416 11.3562 5.96432 12.6283 6.19663 13.8678C9.20963 14.1064 12.2366 14.1098 15.25 13.8781V10.1067Z" fill="black"/>
<path fill-rule="evenodd" clip-rule="evenodd" d="M22 14V9.99997C22 9.17154 21.3284 8.49997 20.5 8.49997H19.6V8.18964C19.6 7.04913 18.7225 6.1006 17.5855 6.01194L16.317 5.91303C12.7777 5.63706 9.22229 5.63706 5.683 5.91303L4.3354 6.01811C3.24022 6.1035 2.344 6.92389 2.16238 8.00727C1.71923 10.6506 1.71923 13.3493 2.16238 15.9927C2.344 17.076 3.24022 17.8964 4.3354 17.9818L5.683 18.0869C9.22229 18.3629 12.7777 18.3629 16.317 18.0869L17.5855 17.988C18.7225 17.8993 19.6 16.9508 19.6 15.8103V15.5H20.5C21.3284 15.5 22 14.8284 22 14ZM16.75 9.78985V14.2079C16.75 14.8026 16.2939 15.298 15.7012 15.3469C12.4323 15.6169 9.14666 15.6169 5.87776 15.3469L5.70348 15.3325C5.26569 15.2964 4.90237 14.9799 4.8062 14.5516C4.42774 12.8662 4.4276 11.1172 4.80607 9.43165C4.90254 9.00202 5.26763 8.68534 5.70658 8.65054L5.89532 8.63558C9.15297 8.37734 12.426 8.37734 15.6836 8.63558C16.2857 8.68331 16.75 9.18585 16.75 9.78985Z" fill="black"/>
</svg>
