<svg width="24" height="24" viewBox="0 0 24 24" fill="none" xmlns="http://www.w3.org/2000/svg">
<path fill-rule="evenodd" clip-rule="evenodd" d="M22 9.99997V14C22 14.8284 21.3284 15.5 20.5 15.5H19.6V15.8103C19.6 16.9508 18.7225 17.8993 17.5855 17.988L16.317 18.0869C12.7777 18.3629 9.22229 18.3629 5.683 18.0869L4.3354 17.9818C3.24022 17.8964 2.344 17.076 2.16238 15.9927C1.71923 13.3493 1.71923 10.6506 2.16238 8.00727C2.344 6.92389 3.24022 6.1035 4.3354 6.01811L5.683 5.91303C9.22229 5.63706 12.7777 5.63706 16.317 5.91303L17.5855 6.01194C18.7225 6.1006 19.6 7.04913 19.6 8.18964V8.49997H20.5C21.3284 8.49997 22 9.17154 22 9.99997ZM10.7895 9.1965C10.7895 8.996 10.7092 8.80384 10.5666 8.66293C10.4239 8.52202 10.2308 8.4441 10.0303 8.44656C8.65078 8.46347 7.27169 8.52648 5.89534 8.63559L5.7066 8.65055C5.26765 8.68534 4.90256 9.00202 4.80609 9.43165C4.42762 11.1172 4.42776 12.8662 4.80622 14.5516C4.90239 14.9799 5.26571 15.2964 5.7035 15.3325L5.87778 15.3469C7.25969 15.461 8.64458 15.5269 10.0299 15.5445C10.2305 15.5471 10.4237 15.4692 10.5664 15.3283C10.7091 15.1874 10.7895 14.9952 10.7895 14.7946V9.1965Z" fill="black"/>
</svg>
