<svg width="24" height="24" viewBox="0 0 24 24" fill="none" xmlns="http://www.w3.org/2000/svg">
<path d="M6.91804 1.59958C6.31259 1.53191 5.68743 1.53191 5.08199 1.59958C4.57616 1.65611 4.16572 2.05413 4.10569 2.56743C4.03321 3.18709 4.03321 3.81309 4.10569 4.43275C4.16572 4.94605 4.57616 5.34407 5.08199 5.4006C5.68743 5.46827 6.31259 5.46827 6.91804 5.4006C7.42387 5.34407 7.8343 4.94605 7.89434 4.43275C7.96681 3.81309 7.96681 3.18709 7.89434 2.56743C7.8343 2.05413 7.42387 1.65611 6.91804 1.59958Z" fill="black"/>
<path d="M12.918 1.59958C12.3126 1.53191 11.6874 1.53191 11.082 1.59958C10.5762 1.65611 10.1657 2.05413 10.1057 2.56743C10.0332 3.18709 10.0332 3.81309 10.1057 4.43275C10.1657 4.94605 10.5762 5.34407 11.082 5.4006C11.6874 5.46827 12.3126 5.46827 12.918 5.4006C13.4239 5.34407 13.8343 4.94605 13.8943 4.43275C13.9668 3.81309 13.9668 3.18709 13.8943 2.56743C13.8343 2.05413 13.4239 1.65611 12.918 1.59958Z" fill="black"/>
<path d="M18.918 1.59958C18.3126 1.53191 17.6874 1.53191 17.082 1.59958C16.5762 1.65611 16.1657 2.05413 16.1057 2.56743C16.0332 3.18709 16.0332 3.81309 16.1057 4.43275C16.1657 4.94605 16.5762 5.34407 17.082 5.4006C17.6874 5.46827 18.3126 5.46827 18.918 5.4006C19.4239 5.34407 19.8343 4.94605 19.8943 4.43275C19.9668 3.81309 19.9668 3.18709 19.8943 2.56743C19.8343 2.05413 19.4239 1.65611 18.918 1.59958Z" fill="black"/>
<path d="M6.91804 7.09958C6.31259 7.03191 5.68743 7.03191 5.08199 7.09958C4.57616 7.15611 4.16572 7.55413 4.10569 8.06743C4.03321 8.68709 4.03321 9.31309 4.10569 9.93275C4.16572 10.446 4.57616 10.8441 5.08199 10.9006C5.68743 10.9683 6.31259 10.9683 6.91804 10.9006C7.42387 10.8441 7.8343 10.446 7.89434 9.93275C7.96681 9.31309 7.96681 8.68709 7.89434 8.06743C7.8343 7.55413 7.42387 7.15611 6.91804 7.09958Z" fill="black"/>
<path d="M12.918 7.09958C12.3126 7.03191 11.6874 7.03191 11.082 7.09958C10.5762 7.15611 10.1657 7.55413 10.1057 8.06743C10.0332 8.68709 10.0332 9.31309 10.1057 9.93275C10.1657 10.446 10.5762 10.8441 11.082 10.9006C11.6874 10.9683 12.3126 10.9683 12.918 10.9006C13.4239 10.8441 13.8343 10.446 13.8943 9.93275C13.9668 9.31309 13.9668 8.68709 13.8943 8.06743C13.8343 7.55413 13.4239 7.15611 12.918 7.09958Z" fill="black"/>
<path d="M18.918 7.09958C18.3126 7.03191 17.6874 7.03191 17.082 7.09958C16.5762 7.15611 16.1657 7.55413 16.1057 8.06743C16.0332 8.68709 16.0332 9.31309 16.1057 9.93275C16.1657 10.446 16.5762 10.8441 17.082 10.9006C17.6874 10.9683 18.3126 10.9683 18.918 10.9006C19.4239 10.8441 19.8343 10.446 19.8943 9.93275C19.9668 9.31309 19.9668 8.68709 19.8943 8.06743C19.8343 7.55413 19.4239 7.15611 18.918 7.09958Z" fill="black"/>
<path d="M6.91804 12.5996C6.31259 12.5319 5.68743 12.5319 5.08199 12.5996C4.57616 12.6561 4.16572 13.0541 4.10569 13.5674C4.03321 14.1871 4.03321 14.8131 4.10569 15.4327C4.16572 15.946 4.57616 16.3441 5.08199 16.4006C5.68743 16.4683 6.31259 16.4683 6.91804 16.4006C7.42387 16.3441 7.8343 15.946 7.89434 15.4327C7.96681 14.8131 7.96681 14.1871 7.89434 13.5674C7.8343 13.0541 7.42387 12.6561 6.91804 12.5996Z" fill="black"/>
<path d="M12.918 12.5996C12.3126 12.5319 11.6874 12.5319 11.082 12.5996C10.5762 12.6561 10.1657 13.0541 10.1057 13.5674C10.0332 14.1871 10.0332 14.8131 10.1057 15.4327C10.1657 15.946 10.5762 16.3441 11.082 16.4006C11.6874 16.4683 12.3126 16.4683 12.918 16.4006C13.4239 16.3441 13.8343 15.946 13.8943 15.4327C13.9668 14.8131 13.9668 14.1871 13.8943 13.5674C13.8343 13.0541 13.4239 12.6561 12.918 12.5996Z" fill="black"/>
<path d="M12.918 18.0996C12.3126 18.0319 11.6874 18.0319 11.082 18.0996C10.5762 18.1561 10.1657 18.5541 10.1057 19.0674C10.0332 19.6871 10.0332 20.3131 10.1057 20.9327C10.1657 21.446 10.5762 21.8441 11.082 21.9006C11.6874 21.9683 12.3126 21.9683 12.918 21.9006C13.4239 21.8441 13.8343 21.446 13.8943 20.9327C13.9668 20.3131 13.9668 19.6871 13.8943 19.0674C13.8343 18.5541 13.4239 18.1561 12.918 18.0996Z" fill="black"/>
<path d="M18.918 12.5996C18.3126 12.5319 17.6874 12.5319 17.082 12.5996C16.5762 12.6561 16.1657 13.0541 16.1057 13.5674C16.0332 14.1871 16.0332 14.8131 16.1057 15.4327C16.1657 15.946 16.5762 16.3441 17.082 16.4006C17.6874 16.4683 18.3126 16.4683 18.918 16.4006C19.4239 16.3441 19.8343 15.946 19.8943 15.4327C19.9668 14.8131 19.9668 14.1871 19.8943 13.5674C19.8343 13.0541 19.4239 12.6561 18.918 12.5996Z" fill="black"/>
</svg>
